<svg width="246.042" height="85.619" viewBox="0 0 246.042 85.619" xmlns="http://www.w3.org/2000/svg"><g id="svgGroup" stroke-linecap="round" fill-rule="evenodd" font-size="9pt" stroke="#3b82f6" stroke-width="0.25mm" fill="#3b82f6" style="stroke:#3b82f6;stroke-width:0.25mm;fill:#3b82f6"><path d="M 212.9 59.906 Q 214.7 63.206 214.8 66.856 Q 214.9 70.506 213.75 73.856 A 18.806 18.806 0 0 1 211.606 78.233 A 16.907 16.907 0 0 1 210.5 79.706 A 5.139 5.139 0 0 0 209.466 79.948 Q 208.681 80.225 208.15 80.756 A 49.495 49.495 0 0 0 207.477 81.443 Q 206.888 82.056 206.2 82.806 Q 202.4 84.306 197.95 85.056 Q 193.5 85.806 189.1 85.556 Q 184.7 85.306 180.9 83.856 A 14.62 14.62 0 0 1 176.074 80.891 A 13.953 13.953 0 0 1 174.7 79.406 Q 174.9 76.406 176.05 74.006 Q 177.2 71.606 178.5 70.006 Q 180.5 67.506 183.65 66.406 A 15.961 15.961 0 0 1 188.949 65.51 A 17.051 17.051 0 0 1 190.2 65.556 A 15.779 15.779 0 0 1 194.939 66.625 A 14.54 14.54 0 0 1 196.4 67.306 Q 199.2 68.806 200.4 71.506 Q 199.135 73.258 197.302 73.258 A 3.887 3.887 0 0 1 197.2 73.256 Q 195.33 73.207 193.072 72.722 A 31.17 31.17 0 0 1 193 72.706 Q 191 72.306 188.9 72.056 A 6.545 6.545 0 0 0 188.126 72.01 Q 186.708 72.01 185.337 72.636 A 8.071 8.071 0 0 0 184.8 72.906 A 3.704 3.704 0 0 0 184.364 73.441 Q 184.169 73.727 183.986 74.085 A 8.838 8.838 0 0 0 183.7 74.706 A 5.717 5.717 0 0 0 183.497 75.272 Q 183.249 76.103 183.4 76.706 Q 184.1 78.106 186.55 78.856 Q 189 79.606 191.8 79.206 Q 194.3 78.806 197.4 77.856 A 28.552 28.552 0 0 0 201.041 76.474 A 24.072 24.072 0 0 0 203 75.456 Q 205.5 74.006 206.1 72.406 A 8.338 8.338 0 0 0 206.668 70.14 Q 206.805 68.773 206.45 67.406 Q 205.8 64.906 204.05 63.056 Q 202.3 61.206 199.9 60.806 A 45.414 45.414 0 0 0 196.928 60.653 Q 195.13 60.617 193.185 60.707 A 65.92 65.92 0 0 0 192.25 60.756 A 26.803 26.803 0 0 0 187.083 61.558 A 23.116 23.116 0 0 0 184.6 62.356 Q 181.1 63.706 179.4 66.906 A 10.227 10.227 0 0 1 178.4 67.015 Q 174.655 67.229 172.67 64.288 A 8.736 8.736 0 0 1 172.1 63.306 Q 171.8 60.106 173.05 58.556 Q 174.3 57.006 176.2 56.206 Q 176.7 53.306 176.95 51.606 Q 177.165 50.145 177.491 48.315 A 163.699 163.699 0 0 1 177.6 47.706 Q 174.7 45.206 173.25 41.656 Q 171.8 38.106 171.8 34.156 Q 171.8 30.206 173.3 26.606 Q 174.8 23.006 177.75 20.406 A 14.714 14.714 0 0 1 182.74 17.547 A 18.728 18.728 0 0 1 185.1 16.906 Q 185.2 15.506 184.85 14.406 A 21.606 21.606 0 0 0 184.44 13.232 A 17.017 17.017 0 0 0 184.1 12.406 A 23.439 23.439 0 0 1 183.399 10.08 A 21.074 21.074 0 0 1 183.3 9.656 A 2.949 2.949 0 0 1 183.231 9.015 Q 183.231 7.914 184 6.606 Q 185.9 6.006 188.05 6.756 Q 190.2 7.506 191.9 9.056 A 7.168 7.168 0 0 1 192.926 10.2 Q 193.526 11.046 193.726 11.959 A 4.304 4.304 0 0 1 193.8 12.406 L 193.8 13.106 L 193.8 13.906 Q 193.8 15.506 194 17.256 A 3.646 3.646 0 0 0 194.14 17.943 Q 194.484 19.028 195.5 19.106 A 20.97 20.97 0 0 1 200.301 19.881 Q 204.128 21 206.625 23.662 A 13.297 13.297 0 0 1 207.15 24.256 A 13.328 13.328 0 0 1 210.233 32.645 Q 210.28 34.3 210 36.106 A 12.085 12.085 0 0 1 209.067 39.506 A 10.681 10.681 0 0 1 207.9 41.506 A 20.507 20.507 0 0 0 206.016 44.564 A 17.479 17.479 0 0 0 205.3 46.206 A 53.031 53.031 0 0 1 203.34 47.57 Q 201.433 48.829 199.958 49.512 A 14.83 14.83 0 0 1 199.75 49.606 Q 197.615 50.555 195.751 50.784 A 10.195 10.195 0 0 1 195.55 50.806 A 36.206 36.206 0 0 1 193.601 50.95 Q 192.575 50.999 191.43 51.006 A 61.138 61.138 0 0 1 191.1 51.006 L 188.5 51.006 Q 187.1 51.006 185.4 51.106 A 4.016 4.016 0 0 0 184.869 52.478 A 4.931 4.931 0 0 0 184.8 52.956 Q 184.7 54.006 184.6 54.706 Q 185.6 54.706 186.75 54.556 A 43.665 43.665 0 0 1 188.246 54.388 A 52.004 52.004 0 0 1 189.2 54.306 Q 192.3 54.006 195.95 53.756 Q 199.6 53.506 203 54.106 A 15.342 15.342 0 0 1 206.326 55.111 A 12.723 12.723 0 0 1 208.55 56.356 Q 210.9 58.006 212.9 59.906 Z M 58.2 53.306 A 0.833 0.833 0 0 0 57.774 53.644 Q 57.578 53.931 57.485 54.433 A 4.202 4.202 0 0 0 57.45 54.656 A 5.777 5.777 0 0 1 57.242 55.627 A 4.187 4.187 0 0 1 56.8 56.606 A 26.893 26.893 0 0 1 53.371 60.964 A 35.924 35.924 0 0 1 49.85 64.156 A 40.699 40.699 0 0 1 40.496 69.714 A 45.595 45.595 0 0 1 39.8 70.006 A 40.369 40.369 0 0 1 27.305 72.849 A 45.139 45.139 0 0 1 27.2 72.856 A 33.86 33.86 0 0 1 24.93 72.933 A 33.888 33.888 0 0 1 14 71.106 A 5.161 5.161 0 0 0 13.634 71.015 Q 13.176 70.92 12.85 70.956 A 2.479 2.479 0 0 1 12.705 70.968 Q 12.325 70.987 11.628 70.934 A 23.334 23.334 0 0 1 11.3 70.906 Q 10.3 69.906 9.05 69.106 A 70.585 70.585 0 0 0 6.901 67.783 A 63.893 63.893 0 0 0 6.6 67.606 Q 5.2 65.806 4.35 63.806 Q 3.5 61.806 2.6 60.006 A 8.812 8.812 0 0 0 0.209 57.071 A 10.224 10.224 0 0 0 0 56.906 A 0.267 0.267 0 0 1 0.181 56.648 Q 0.378 56.562 0.791 56.596 A 3.733 3.733 0 0 1 0.9 56.606 L 1.4 56.606 Q 2.7 54.406 5.05 53.256 A 33.057 33.057 0 0 1 9.885 51.357 A 36.209 36.209 0 0 1 10.05 51.306 A 22.556 22.556 0 0 0 13.916 49.751 A 20.174 20.174 0 0 0 14.9 49.206 Q 15.4 43.906 15.55 37.706 Q 15.685 32.145 15.135 26.985 A 73.698 73.698 0 0 0 15 25.806 A 31.366 31.366 0 0 0 14.264 21.827 Q 13.734 19.764 12.939 18.071 A 16.207 16.207 0 0 0 12.1 16.506 Q 9.3 17.406 6.2 16.506 A 51.736 51.736 0 0 1 4.002 15.817 Q 2.815 15.415 1.794 14.993 A 27.663 27.663 0 0 1 0.9 14.606 Q 0.9 14.506 1 14.306 A 16.271 16.271 0 0 1 1.777 13.081 A 17.961 17.961 0 0 1 1.9 12.906 A 1.134 1.134 0 0 1 2.117 12.674 Q 2.581 12.307 3.3 12.706 A 45.781 45.781 0 0 1 7.095 9.926 Q 9.11 8.594 11.48 7.28 A 82.541 82.541 0 0 1 13.1 6.406 A 58.197 58.197 0 0 1 22.546 2.493 A 68.388 68.388 0 0 1 26.15 1.456 Q 33.3 -0.394 40.9 0.106 A 21.781 21.781 0 0 1 43.537 0.425 Q 44.929 0.685 46.115 1.127 A 12.947 12.947 0 0 1 46.45 1.256 A 23.22 23.22 0 0 1 49.141 2.562 A 30.306 30.306 0 0 1 51.3 3.906 A 11.408 11.408 0 0 1 53.688 8.091 A 13.729 13.729 0 0 1 53.95 9.006 A 20.394 20.394 0 0 1 54.572 13.595 Q 54.584 14.253 54.55 14.906 Q 54.442 17.004 53.941 18.525 A 8.016 8.016 0 0 1 53.5 19.606 A 0.432 0.432 0 0 0 53.533 19.683 Q 53.644 19.877 53.9 19.706 A 0.588 0.588 0 0 1 53.98 19.661 Q 54.207 19.557 54.371 19.766 A 0.647 0.647 0 0 1 54.4 19.806 A 16.579 16.579 0 0 0 54.064 20.517 Q 53.759 21.207 53.619 21.733 A 4.862 4.862 0 0 0 53.6 21.806 A 2.128 2.128 0 0 1 53.307 22.455 Q 52.995 22.931 52.4 23.406 A 3.576 3.576 0 0 1 52.422 23.801 A 3.221 3.221 0 0 1 52.15 25.106 Q 51.8 25.906 51.3 26.706 Q 50.9 27.206 50.6 27.756 Q 50.3 28.306 50.2 28.906 A 1.693 1.693 0 0 0 49.713 28.973 A 1.363 1.363 0 0 0 49.2 29.256 A 4.961 4.961 0 0 0 48.557 29.932 A 4.572 4.572 0 0 0 48.5 30.006 A 3.094 3.094 0 0 1 48.159 30.475 A 2.449 2.449 0 0 1 47.8 30.806 Q 47.445 31.073 46.853 30.866 A 2.39 2.39 0 0 1 46.7 30.806 Q 46.3 31.706 47.3 32.506 Q 48.159 33.194 49.314 33.955 A 39.872 39.872 0 0 0 49.7 34.206 L 51.3 35.206 A 8.274 8.274 0 0 1 52.295 35.932 A 7.083 7.083 0 0 1 52.7 36.306 A 21.536 21.536 0 0 1 56.097 40.584 A 26.921 26.921 0 0 1 57.55 43.306 Q 59.183 46.824 58.537 51.464 A 22.841 22.841 0 0 1 58.2 53.306 Z M 47.5 42.006 Q 45.3 39.506 42 38.756 Q 38.7 38.006 35.4 37.406 A 2.31 2.31 0 0 1 34.971 37.652 Q 34.486 37.86 34 37.756 Q 33.322 37.611 32.55 37.231 A 8.837 8.837 0 0 1 32.5 37.206 A 3.818 3.818 0 0 1 31.85 36.978 A 4.35 4.35 0 0 1 31.7 36.906 A 3.335 3.335 0 0 0 31.132 36.687 A 4.089 4.089 0 0 0 30.8 36.606 Q 30.4 35.706 30.15 34.756 Q 29.9 33.806 29.4 33.006 A 12.324 12.324 0 0 1 30.826 30.76 A 9.025 9.025 0 0 1 33.3 28.606 A 6.279 6.279 0 0 1 35.84 27.797 Q 36.877 27.688 38.061 27.86 A 12.56 12.56 0 0 1 39.3 28.106 A 9.384 9.384 0 0 0 43.051 24.823 A 11.42 11.42 0 0 0 43.35 24.356 A 14.792 14.792 0 0 0 45.285 19.072 A 17.022 17.022 0 0 0 45.35 18.656 Q 45.8 15.506 45 12.706 Q 42.9 10.906 41.2 8.606 Q 37.3 7.706 32.9 8.056 A 32.894 32.894 0 0 0 27.219 8.994 A 28.377 28.377 0 0 0 24.75 9.756 A 22.296 22.296 0 0 0 21.844 11.029 Q 20.03 11.992 18.7 13.206 A 11.169 11.169 0 0 0 19.665 13.957 A 14.732 14.732 0 0 0 20.6 14.556 A 27.4 27.4 0 0 1 22.525 15.809 A 30.134 30.134 0 0 1 22.8 16.006 A 7.416 7.416 0 0 0 23.685 18.167 A 8.583 8.583 0 0 0 23.9 18.506 Q 23.1 21.606 22.8 26.506 Q 22.543 30.706 22.543 35.421 A 177.618 177.618 0 0 0 22.55 37.006 Q 22.6 42.606 22.8 47.806 Q 25.2 48.106 28.1 48.406 A 14.534 14.534 0 0 1 31.157 49.045 A 12.071 12.071 0 0 1 33.25 49.956 A 4.501 4.501 0 0 1 35.413 52.719 A 7.477 7.477 0 0 1 35.7 54.406 A 5.375 5.375 0 0 1 35.002 55.522 A 3.221 3.221 0 0 1 32.5 56.756 Q 31.243 56.786 29.842 56.619 A 25.06 25.06 0 0 1 27.9 56.306 Q 26.7 56.106 25.5 55.956 Q 24.3 55.806 23.1 55.806 A 1.084 1.084 0 0 0 22.706 56.392 A 1.619 1.619 0 0 0 22.65 56.706 Q 22.6 57.306 22.6 57.906 Q 22.6 58.506 22.55 59.056 A 2.894 2.894 0 0 1 22.504 59.376 Q 22.471 59.538 22.42 59.671 A 1.201 1.201 0 0 1 22.3 59.906 A 13.488 13.488 0 0 1 19.898 58.975 A 11.352 11.352 0 0 1 18.6 58.206 L 15.4 56.006 Q 14.169 56.088 13.41 56.676 A 2.65 2.65 0 0 0 13.1 56.956 A 4.371 4.371 0 0 1 11.799 57.895 A 5.693 5.693 0 0 1 11 58.206 A 11.434 11.434 0 0 0 10.994 58.587 Q 10.994 60.479 11.652 61.734 A 4.189 4.189 0 0 0 12.35 62.706 A 7.837 7.837 0 0 0 15.039 64.505 A 9.787 9.787 0 0 0 16.05 64.856 A 38.854 38.854 0 0 0 19.871 65.748 A 43.753 43.753 0 0 0 20.8 65.906 A 8.239 8.239 0 0 0 21.234 66.003 A 6.538 6.538 0 0 0 21.55 66.056 A 6.733 6.733 0 0 1 21.96 66.129 A 8.476 8.476 0 0 1 22.3 66.206 A 2.291 2.291 0 0 1 23.2 65.754 A 3.234 3.234 0 0 1 23.85 65.656 Q 24.8 65.606 25.8 65.606 L 26.65 65.606 L 27.5 65.606 Q 32 65.106 37 62.856 A 31.503 31.503 0 0 0 42.537 59.687 A 26.564 26.564 0 0 0 45.5 57.206 A 17.136 17.136 0 0 0 48.148 54.072 A 13.248 13.248 0 0 0 49.95 49.906 A 7.518 7.518 0 0 0 50.158 48.164 Q 50.158 45.31 47.918 42.507 A 15.205 15.205 0 0 0 47.5 42.006 Z M 93.4 66.806 Q 94.8 68.606 94.4 70.206 A 9.097 9.097 0 0 1 93.937 71.597 A 6.758 6.758 0 0 1 93.2 72.906 A 12.949 12.949 0 0 1 87.995 73.963 A 15.159 15.159 0 0 1 86.7 73.906 Q 83.2 73.606 80.2 73.106 Q 79.5 73.006 79.2 72.906 A 3.486 3.486 0 0 1 79.088 72.788 Q 78.962 72.649 78.785 72.434 A 21.154 21.154 0 0 1 78.6 72.206 Q 77.2 70.906 76.2 69.456 A 3.389 3.389 0 0 1 75.741 68.526 Q 75.485 67.691 75.736 66.783 A 4.153 4.153 0 0 1 75.9 66.306 A 1.965 1.965 0 0 1 77.109 65.093 A 2.972 2.972 0 0 1 77.6 64.956 Q 78.9 64.706 79.7 63.706 A 1.939 1.939 0 0 0 79.973 63.35 Q 80.313 62.799 80.6 61.756 A 19.399 19.399 0 0 0 80.876 60.636 Q 80.989 60.102 81.053 59.627 A 10.034 10.034 0 0 0 81.1 59.206 A 93.334 93.334 0 0 0 81.355 55.038 Q 81.456 52.533 81.456 49.705 A 165.924 165.924 0 0 0 81.45 48.356 Q 81.4 42.206 81.2 36.806 Q 81.2 35.106 81.15 33.556 Q 81.1 32.006 81.1 30.706 Q 81.1 28.606 81.15 26.606 Q 81.2 24.606 81.2 22.706 Q 81.4 19.706 81.4 16.906 A 47.704 47.704 0 0 0 81.17 12.16 A 43.194 43.194 0 0 0 81.1 11.506 A 11.096 11.096 0 0 0 80.256 8.433 A 10.117 10.117 0 0 0 79.7 7.356 A 7.768 7.768 0 0 1 78.707 4.505 A 10.122 10.122 0 0 1 78.6 3.006 A 5.583 5.583 0 0 1 79.994 2.131 Q 81.285 1.578 82.737 1.844 A 5.636 5.636 0 0 1 82.8 1.856 A 13.423 13.423 0 0 1 86.08 2.968 A 16.179 16.179 0 0 1 87.35 3.656 A 37.337 37.337 0 0 1 88.918 4.648 Q 90.125 5.456 91 6.206 Q 91 6.578 91.086 7.036 A 6.465 6.465 0 0 0 91.1 7.106 L 91.3 8.106 A 28.336 28.336 0 0 1 91.593 10.175 Q 91.744 11.597 91.8 13.256 A 8.289 8.289 0 0 1 91.805 13.537 Q 91.805 15.374 90.989 17.191 A 12.12 12.12 0 0 1 89.9 19.106 Q 89.8 22.806 89.6 26.456 Q 89.4 30.106 89.2 33.806 Q 88.8 41.506 88.5 49.306 Q 88.2 57.106 88.8 65.206 Q 89.413 65.36 90.377 65.659 A 67.76 67.76 0 0 1 91 65.856 A 21.531 21.531 0 0 1 92.146 66.259 Q 92.664 66.458 93.11 66.667 A 11.906 11.906 0 0 1 93.4 66.806 Z M 154.7 58.706 A 4.487 4.487 0 0 0 154.136 59.206 A 3.999 3.999 0 0 0 154 59.356 A 0.953 0.953 0 0 1 153.523 59.653 Q 153.334 59.706 153.1 59.706 Q 153.217 60.528 153.025 61.177 A 2.492 2.492 0 0 1 152.6 62.006 A 11.677 11.677 0 0 1 151.348 63.383 A 10.581 10.581 0 0 1 151.1 63.606 L 150.65 64.056 L 150.2 64.506 Q 148 66.906 145 69.556 A 14.378 14.378 0 0 1 139.458 72.568 A 17.955 17.955 0 0 1 137.6 73.006 A 33.637 33.637 0 0 1 131.853 73.497 A 35.93 35.93 0 0 1 126.95 73.156 A 23.487 23.487 0 0 1 122.37 72.076 A 17.556 17.556 0 0 1 117.8 69.706 A 24.159 24.159 0 0 1 114.3 66.346 A 28.904 28.904 0 0 1 112.85 64.506 Q 110.6 61.406 109.4 57.806 Q 108.371 54.721 108.371 51.929 A 14.785 14.785 0 0 1 108.4 51.006 Q 108.7 47.406 110.9 44.456 A 85.079 85.079 0 0 0 114.144 39.778 A 96.298 96.298 0 0 0 115.2 38.106 A 1.973 1.973 0 0 0 116.624 38.706 A 2.393 2.393 0 0 0 116.65 38.706 L 117.5 38.706 A 17.03 17.03 0 0 1 117.182 36.67 Q 117.012 34.923 117.116 32.836 A 35.066 35.066 0 0 1 117.15 32.256 Q 117.4 28.506 117.7 25.106 Q 117.779 24.791 117.796 24.599 A 1.081 1.081 0 0 0 117.8 24.506 Q 119.3 23.106 120.85 21.706 Q 122.4 20.306 124 19.006 Q 124.842 19.175 125.64 19.175 A 6.996 6.996 0 0 0 127.75 18.856 A 27.705 27.705 0 0 0 130.038 18.029 A 23.761 23.761 0 0 0 131 17.606 Q 132.61 16.891 133.98 16.615 A 9.764 9.764 0 0 1 134.3 16.556 Q 135.8 16.306 136.9 18.306 A 17.921 17.921 0 0 1 138.09 18.213 Q 141.571 18.06 143.848 19.446 A 7.271 7.271 0 0 1 144.1 19.606 Q 146.8 21.406 149.2 23.706 L 150.6 25.106 Q 151.3 25.806 152.1 26.406 Q 155 34.206 155.3 42.656 Q 155.6 51.106 154.7 58.706 Z M 146.2 38.106 L 145 38.106 Q 143.8 41.106 141.15 43.106 Q 138.5 45.106 135.2 46.006 Q 131.9 46.906 128.6 46.456 Q 125.3 46.006 122.7 43.906 A 6.982 6.982 0 0 0 120.82 44.661 A 5.619 5.619 0 0 0 119.05 46.306 Q 117.8 48.106 117.5 50.406 A 19.033 19.033 0 0 0 117.337 52.706 Q 117.336 52.781 117.336 52.856 A 16.488 16.488 0 0 0 117.45 54.806 A 28.648 28.648 0 0 0 117.621 56.031 Q 117.825 57.281 118.1 58.106 A 1.72 1.72 0 0 0 118.196 58.43 Q 118.275 58.62 118.397 58.757 A 0.966 0.966 0 0 0 118.5 58.856 Q 118.8 59.106 119.1 59.406 Q 119.5 59.706 119.8 60.106 Q 120.1 60.506 120.1 61.306 A 20.95 20.95 0 0 0 123.117 63.411 Q 125.125 64.55 127.15 65.006 Q 129.109 65.448 130.946 65.448 A 14.336 14.336 0 0 0 133.85 65.156 A 17.681 17.681 0 0 0 137.599 63.954 A 15.247 15.247 0 0 0 139.45 62.956 A 22.471 22.471 0 0 0 141.412 61.571 Q 142.556 60.663 143.4 59.706 A 12.462 12.462 0 0 0 145.537 56.199 A 16.61 16.61 0 0 0 146.35 53.606 Q 147.2 49.906 147.15 45.806 A 34.971 34.971 0 0 0 146.68 40.405 A 30.234 30.234 0 0 0 146.2 38.106 Z M 200.4 39.806 L 200.5 39.706 A 44.875 44.875 0 0 0 200.889 38.565 Q 201.057 38.051 201.235 37.474 A 90.942 90.942 0 0 0 201.6 36.256 Q 202.2 34.206 201.95 31.906 A 6.105 6.105 0 0 0 200.958 29.215 Q 200.454 28.439 199.701 27.704 A 11.108 11.108 0 0 0 199.6 27.606 Q 197.6 26.306 195.05 25.606 A 14.645 14.645 0 0 0 193.414 25.268 Q 191.616 24.991 189.046 24.926 A 65.301 65.301 0 0 0 187.4 24.906 A 6.329 6.329 0 0 0 182.71 26.928 A 8.473 8.473 0 0 0 182.45 27.206 Q 180.4 29.506 179.75 32.606 A 11.222 11.222 0 0 0 179.524 34.295 Q 179.509 34.57 179.509 34.84 A 8.804 8.804 0 0 0 180.2 38.306 A 9.149 9.149 0 0 0 184.498 42.658 A 11.945 11.945 0 0 0 185.25 43.006 A 13.077 13.077 0 0 0 190.393 44.029 Q 191.505 44.029 192.667 43.859 A 17.332 17.332 0 0 0 193 43.806 A 12.954 12.954 0 0 0 199.791 40.402 A 16.145 16.145 0 0 0 200.4 39.806 Z M 145.3 37.406 A 8.004 8.004 0 0 0 145.569 35.774 Q 145.665 34.057 144.95 32.456 A 10.932 10.932 0 0 0 142.207 28.746 A 12.896 12.896 0 0 0 141.75 28.356 Q 139.6 26.606 136.95 25.856 A 10.822 10.822 0 0 0 133.99 25.44 A 10.989 10.989 0 0 0 131.6 25.706 Q 128.9 26.306 126.9 28.706 A 11.681 11.681 0 0 0 125.995 30.786 A 9.264 9.264 0 0 0 125.6 32.656 A 9.673 9.673 0 0 0 125.557 33.248 Q 125.501 34.628 125.898 35.583 A 3.543 3.543 0 0 0 126 35.806 A 4.807 4.807 0 0 0 129.035 38.43 A 6.469 6.469 0 0 0 129.75 38.606 A 11.05 11.05 0 0 0 131.803 38.799 Q 133.328 38.799 134.886 38.38 A 13.291 13.291 0 0 0 135.15 38.306 A 10.514 10.514 0 0 0 136.904 37.633 Q 138.357 36.909 139.2 35.806 Q 140.991 35.465 142.381 35.633 A 6.676 6.676 0 0 1 142.85 35.706 A 3.628 3.628 0 0 1 145.24 37.315 A 4.771 4.771 0 0 1 145.3 37.406 Z M 245.973 64.57 A 12.643 12.643 0 0 0 245.8 63.506 A 4.932 4.932 0 0 0 244.747 61.175 A 5.799 5.799 0 0 0 243.25 59.906 A 7.737 7.737 0 0 0 242.617 59.562 Q 241.274 58.912 239.874 58.912 A 6.259 6.259 0 0 0 238.8 59.006 A 10.023 10.023 0 0 0 238.499 59.051 Q 237.532 59.21 236.752 59.54 A 4.939 4.939 0 0 0 234.5 61.356 A 8.079 8.079 0 0 0 233.857 62.507 Q 233.293 63.754 233.293 65.021 A 5.715 5.715 0 0 0 233.3 65.306 Q 233.4 68.106 235.6 69.756 Q 237.674 71.312 240.015 71.312 A 7.123 7.123 0 0 0 240.3 71.306 Q 242.9 71.206 244.75 69.306 Q 246.338 67.675 245.973 64.57 Z" vector-effect="non-scaling-stroke"/></g></svg>