<svg width="227.1" height="97.2" viewBox="0 0 227.1 97.2" xmlns="http://www.w3.org/2000/svg"><g id="svgGroup" stroke-linecap="round" fill-rule="evenodd" font-size="9pt" stroke="#ffffff" stroke-width="0.25mm" fill="#ffffff" style="stroke:#ffffff;stroke-width:0.25mm;fill:#ffffff"><path d="M 157.3 92.8 L 160.6 85 A 20.562 20.562 0 0 0 164.417 87.373 A 24.737 24.737 0 0 0 166.2 88.15 Q 168.959 89.228 172.759 89.376 A 31.788 31.788 0 0 0 174 89.4 A 21.701 21.701 0 0 0 178.521 88.957 Q 181.422 88.339 183.622 86.859 A 12.576 12.576 0 0 0 185.15 85.65 A 11.352 11.352 0 0 0 188.057 81.157 Q 189.2 78.056 189.2 73.7 L 189.2 67.3 Q 187.2 69.7 183.45 71.85 Q 179.7 74 174.5 74 Q 168.6 74 163.3 70.95 A 22.236 22.236 0 0 1 156.008 64.112 A 27.437 27.437 0 0 1 154.7 62 A 25.181 25.181 0 0 1 151.987 54.376 A 35.033 35.033 0 0 1 151.4 47.8 A 32.06 32.06 0 0 1 152.317 39.992 A 26.682 26.682 0 0 1 154.65 33.9 A 25.706 25.706 0 0 1 160.714 26.278 A 24.448 24.448 0 0 1 163.4 24.3 Q 168.9 20.8 175.5 20.8 A 22.366 22.366 0 0 1 180.32 21.301 A 18.715 18.715 0 0 1 183.5 22.3 A 25.705 25.705 0 0 1 187.328 24.268 A 20.998 20.998 0 0 1 189.7 26 L 189.7 22 L 197.9 22 L 197.9 72.8 Q 197.9 81.4 194.9 86.8 Q 191.9 92.2 186.55 94.7 A 25.811 25.811 0 0 1 179.946 96.721 A 35.243 35.243 0 0 1 174 97.2 Q 169.4 97.2 165.05 96.1 A 27.232 27.232 0 0 1 159.75 94.183 A 23.518 23.518 0 0 1 157.3 92.8 Z M 0 73.8 L 0 4.2 A 100.907 100.907 0 0 1 1.856 4.006 Q 4.753 3.729 8.576 3.507 A 270.552 270.552 0 0 1 8.7 3.5 A 168.416 168.416 0 0 1 13.537 3.295 Q 16.008 3.224 18.745 3.206 A 285.352 285.352 0 0 1 20.6 3.2 Q 29 3.2 34.859 5.289 A 22.604 22.604 0 0 1 40.3 8.05 A 16.711 16.711 0 0 1 44.863 12.707 Q 47.054 16.14 47.191 20.601 A 19.526 19.526 0 0 1 47.2 21.2 A 17.052 17.052 0 0 1 46.573 25.92 A 13.798 13.798 0 0 1 44.25 30.55 Q 41.3 34.4 35.7 36.9 A 30.217 30.217 0 0 1 40.336 38.96 Q 43.813 40.894 46 43.55 Q 49.5 47.8 49.5 54 Q 49.5 63.315 42.29 68.928 A 22.979 22.979 0 0 1 42 69.15 A 24.681 24.681 0 0 1 34.623 72.86 Q 28.579 74.8 20.2 74.8 A 221.836 221.836 0 0 1 12.12 74.658 A 187.566 187.566 0 0 1 8.65 74.5 A 227.449 227.449 0 0 1 6.066 74.344 Q 3.259 74.157 1.195 73.938 A 65.535 65.535 0 0 1 0 73.8 Z M 61.5 57.7 L 61.5 0 L 70.5 0 L 70.5 56.8 A 20.644 20.644 0 0 0 70.688 59.688 Q 71.15 62.952 72.75 64.8 A 7.363 7.363 0 0 0 77.334 67.276 A 10.724 10.724 0 0 0 79 67.4 Q 80.9 67.4 82.75 66.95 A 22.192 22.192 0 0 0 84.213 66.544 Q 85.148 66.247 85.9 65.9 L 88.1 73.2 Q 86.701 73.822 84.788 74.323 A 34.978 34.978 0 0 1 83.65 74.6 A 23.816 23.816 0 0 1 80.495 75.085 A 30.514 30.514 0 0 1 77.8 75.2 A 20.862 20.862 0 0 1 72.91 74.646 A 17.544 17.544 0 0 1 69.5 73.45 A 12.683 12.683 0 0 1 64.175 68.685 A 15.856 15.856 0 0 1 63.65 67.8 Q 61.916 64.654 61.58 60.012 A 32.105 32.105 0 0 1 61.5 57.7 Z M 103.7 71.75 A 24.559 24.559 0 0 0 108.298 73.84 Q 112.353 75.2 117 75.2 Q 124.4 75.2 130.25 71.8 Q 136.1 68.4 139.5 62.25 A 26.255 26.255 0 0 0 142.153 55.109 A 34.184 34.184 0 0 0 142.9 47.8 A 34.542 34.542 0 0 0 142.415 41.891 A 25.795 25.795 0 0 0 139.45 33.45 Q 136 27.4 130.15 24.1 A 24.848 24.848 0 0 0 125.509 22.073 A 27.738 27.738 0 0 0 117 20.8 A 31.325 31.325 0 0 0 115.42 20.839 A 26.169 26.169 0 0 0 103.8 24.1 Q 97.9 27.4 94.5 33.5 A 26.023 26.023 0 0 0 91.751 41.09 A 35.006 35.006 0 0 0 91.1 48 A 34.82 34.82 0 0 0 91.365 52.354 A 27.451 27.451 0 0 0 94.45 62.15 Q 97.8 68.3 103.7 71.75 Z M 117 67.2 Q 124.9 67.2 129.3 61.85 A 18.802 18.802 0 0 0 133.119 53.76 A 27.105 27.105 0 0 0 133.7 48 Q 133.7 42.8 131.5 38.45 A 19.198 19.198 0 0 0 127.328 32.881 A 18.17 18.17 0 0 0 125.55 31.45 Q 121.8 28.8 117 28.8 A 19.249 19.249 0 0 0 111.774 29.472 A 14.037 14.037 0 0 0 104.7 34 A 17.878 17.878 0 0 0 101.026 41.374 Q 100.3 44.306 100.3 47.8 Q 100.3 53 102.5 57.45 A 19.437 19.437 0 0 0 106.03 62.49 A 17.627 17.627 0 0 0 108.45 64.55 Q 112.2 67.2 117 67.2 Z M 188.9 60 L 188.9 32.8 Q 186.734 31.225 183.697 29.941 A 36.018 36.018 0 0 0 183.6 29.9 A 16.249 16.249 0 0 0 179.796 28.849 A 22.135 22.135 0 0 0 176.4 28.6 Q 172.3 28.6 168.7 30.8 Q 165.1 33 162.85 37.15 Q 160.6 41.3 160.6 47.3 A 24.32 24.32 0 0 0 161.078 52.236 A 18.311 18.311 0 0 0 162.85 57.2 A 18.576 18.576 0 0 0 165.761 61.275 A 15.802 15.802 0 0 0 168.7 63.7 Q 172.3 66 176.5 66 A 15.276 15.276 0 0 0 181.078 65.332 A 13.606 13.606 0 0 0 183.7 64.2 A 20.855 20.855 0 0 0 186.681 62.184 A 16.309 16.309 0 0 0 188.9 60 Z M 20.9 41.6 L 9.5 41.6 L 9.5 66.3 Q 14.8 66.9 20.9 66.9 Q 29.8 66.9 34.8 63.7 Q 39.8 60.5 39.8 54.4 A 11.728 11.728 0 0 0 38.928 49.8 Q 37.826 47.187 35.333 45.312 A 14.027 14.027 0 0 0 34.9 45 A 16.7 16.7 0 0 0 30.226 42.799 Q 26.303 41.6 20.9 41.6 Z M 9.5 11.4 L 9.5 34.2 L 20.5 34.2 Q 28.4 34.2 33.05 30.9 Q 37.7 27.6 37.7 22.4 A 10.798 10.798 0 0 0 37.026 18.501 Q 35.939 15.671 33.1 13.85 A 16.643 16.643 0 0 0 28.614 11.886 Q 25.125 10.9 20.5 10.9 Q 17.2 10.9 14.5 11.05 Q 11.8 11.2 9.5 11.4 Z M 215.763 73.262 A 6.418 6.418 0 0 0 220.4 75.2 A 8.605 8.605 0 0 0 221.022 75.178 A 6.461 6.461 0 0 0 225.2 73.35 Q 227.1 71.5 227.1 68.5 A 6.225 6.225 0 0 0 226.521 65.829 A 6.955 6.955 0 0 0 225.05 63.8 A 8.478 8.478 0 0 0 224.529 63.331 A 6.325 6.325 0 0 0 220.4 61.8 A 8.813 8.813 0 0 0 218.547 61.985 A 5.979 5.979 0 0 0 215.5 63.6 A 5.927 5.927 0 0 0 213.932 66.44 A 8.624 8.624 0 0 0 213.7 68.5 Q 213.7 71.2 215.7 73.2 A 8.317 8.317 0 0 0 215.763 73.262 Z" vector-effect="non-scaling-stroke"/></g></svg>